<svg width="23" height="14" viewBox="0 0 23 14" fill="none" xmlns="http://www.w3.org/2000/svg">
<path d="M6.05762 8.08936C6.05762 7.93474 6.18935 7.80939 6.35185 7.80939H7.90136C8.06387 7.80939 8.1956 7.93474 8.1956 8.08936V9.56665C8.1956 9.72127 8.06387 9.84662 7.90136 9.84662H6.35185C6.18935 9.84662 6.05762 9.72128 6.05762 9.56665V8.08936Z" fill="#1E2C44"/>
<path d="M3.20697 4.0149C3.20697 3.86027 3.3387 3.73492 3.50121 3.73492H5.05072C5.21322 3.73492 5.34495 3.86027 5.34495 4.01489V5.49219C5.34495 5.64681 5.21322 5.77216 5.05072 5.77216H3.50121C3.3387 5.77216 3.20697 5.64681 3.20697 5.49219V4.0149Z" fill="#1E2C44"/>
<path d="M7.12662 5.27973C7.12662 5.17664 7.21444 5.09308 7.32278 5.09308H8.35578C8.46412 5.09308 8.55194 5.17664 8.55194 5.27973V6.26459C8.55194 6.36767 8.46412 6.45123 8.35578 6.45123H7.32278C7.21444 6.45123 7.12662 6.36767 7.12662 6.26459V5.27973Z" fill="#1E2C44"/>
<path d="M2.13797 2.17722C2.13797 2.09991 2.20384 2.03723 2.28509 2.03723H3.05984C3.1411 2.03723 3.20696 2.09991 3.20696 2.17722V2.91586C3.20696 2.99317 3.14109 3.05585 3.05984 3.05585H2.28509C2.20384 3.05585 2.13797 2.99317 2.13797 2.91586V2.17722Z" fill="#1E2C44"/>
<path d="M4.27597 11.5781C4.27597 11.3719 4.45162 11.2048 4.66829 11.2048H6.7343C6.95097 11.2048 7.12662 11.3719 7.12662 11.5781V13.5478C7.12662 13.754 6.95097 13.9211 6.7343 13.9211H4.66829C4.45162 13.9211 4.27597 13.754 4.27597 13.5478V11.5781Z" fill="#1E2C44"/>
<path d="M15.7894 0C19.7717 0 22.9999 3.13401 22.9999 7C22.9999 10.866 19.7717 14 15.7894 14H8.31262C8.03798 14 7.81534 13.7839 7.81534 13.5172V11.6828C7.81534 11.4161 8.03798 11.2 8.31262 11.2H15.7894C18.1788 11.2 20.1157 9.3196 20.1157 7C20.1157 4.6804 18.1788 2.8 15.7894 2.8H8.31262C8.03798 2.8 7.81534 2.58386 7.81534 2.31724V0.482759C7.81534 0.216138 8.03798 0 8.31262 0H15.7894Z" fill="#1E2C44"/>
<path d="M2.13797 9.98661C2.13797 9.90929 2.20384 9.84662 2.28509 9.84662H3.05984C3.1411 9.84662 3.20696 9.90929 3.20696 9.9866V10.7252C3.20696 10.8026 3.14109 10.8652 3.05984 10.8652H2.28509C2.20384 10.8652 2.13797 10.8026 2.13797 10.7253V9.98661Z" fill="#1E2C44"/>
<path d="M3.56329 8.62845C3.56329 8.55114 3.62916 8.48847 3.71041 8.48847H4.48517C4.56642 8.48847 4.63229 8.55114 4.63229 8.62845V9.3671C4.63229 9.44441 4.56642 9.50708 4.48517 9.50708H3.71041C3.62916 9.50708 3.56329 9.44441 3.56329 9.3671V8.62845Z" fill="#1E2C44"/>
<path d="M4.27597 0.373295C4.27597 0.16713 4.45162 0 4.66829 0H6.7343C6.95097 0 7.12662 0.16713 7.12662 0.373294V2.34301C7.12662 2.54918 6.95097 2.71631 6.7343 2.71631H4.66829C4.45162 2.71631 4.27597 2.54918 4.27597 2.34301V0.373295Z" fill="#1E2C44"/>
<path d="M0.356323 5.27973C0.356323 5.17664 0.444146 5.09308 0.552482 5.09308H1.58549C1.69382 5.09308 1.78165 5.17664 1.78165 5.27973V6.26459C1.78165 6.36767 1.69382 6.45123 1.58549 6.45123H0.552481C0.444146 6.45123 0.356323 6.36767 0.356323 6.26459V5.27973Z" fill="#1E2C44"/>
<path d="M2.49432 6.63788C2.49432 6.5348 2.58215 6.45123 2.69048 6.45123H3.72349C3.83182 6.45123 3.91965 6.5348 3.91965 6.63788V7.62274C3.91965 7.72582 3.83182 7.80939 3.72349 7.80939H2.69048C2.58215 7.80939 2.49432 7.72582 2.49432 7.62274V6.63788Z" fill="#1E2C44"/>
</svg>
