<svg width="52" height="56" viewBox="0 0 52 56" fill="none" xmlns="http://www.w3.org/2000/svg">
<g filter="url(#filter0_d_434_1238)">
<path d="M15.1667 23.8333V32.5C15.1667 33.6493 15.6232 34.7515 16.4359 35.5641C17.2485 36.3768 18.3507 36.8333 19.5 36.8333H28.1667M10.8333 6.5H19.5C21.8932 6.5 23.8333 8.4401 23.8333 10.8333V19.5C23.8333 21.8932 21.8932 23.8333 19.5 23.8333H10.8333C8.4401 23.8333 6.5 21.8932 6.5 19.5V10.8333C6.5 8.4401 8.4401 6.5 10.8333 6.5ZM32.5 28.1667H41.1667C43.5599 28.1667 45.5 30.1068 45.5 32.5V41.1667C45.5 43.5599 43.5599 45.5 41.1667 45.5H32.5C30.1068 45.5 28.1667 43.5599 28.1667 41.1667V32.5C28.1667 30.1068 30.1068 28.1667 32.5 28.1667Z" stroke="white" stroke-width="3" stroke-linecap="round" stroke-linejoin="round"/>
</g>
<defs>
<filter id="filter0_d_434_1238" x="-5" y="-1" width="62" height="62" filterUnits="userSpaceOnUse" color-interpolation-filters="sRGB">
<feFlood flood-opacity="0" result="BackgroundImageFix"/>
<feColorMatrix in="SourceAlpha" type="matrix" values="0 0 0 0 0 0 0 0 0 0 0 0 0 0 0 0 0 0 127 0" result="hardAlpha"/>
<feOffset dy="4"/>
<feGaussianBlur stdDeviation="2.5"/>
<feColorMatrix type="matrix" values="0 0 0 0 0 0 0 0 0 0 0 0 0 0 0 0 0 0 0.25 0"/>
<feBlend mode="normal" in2="BackgroundImageFix" result="effect1_dropShadow_434_1238"/>
<feBlend mode="normal" in="SourceGraphic" in2="effect1_dropShadow_434_1238" result="shape"/>
</filter>
</defs>
</svg>
