<svg width="55" height="59" viewBox="0 0 55 59" fill="none" xmlns="http://www.w3.org/2000/svg">
<g filter="url(#filter0_d_434_1239)">
<path d="M15.3948 11.265C15.3555 10.3868 15.4923 9.5095 15.7971 8.68486C16.1019 7.86022 16.5685 7.10485 17.1695 6.46318C17.7705 5.8215 18.4937 5.30648 19.2966 4.94841C20.0996 4.59034 20.966 4.39644 21.845 4.37811C22.7239 4.35979 23.5977 4.51742 24.4148 4.84173C25.232 5.16603 25.9761 5.65047 26.6033 6.26654C27.2305 6.88261 27.7281 7.61788 28.067 8.42911C28.4059 9.24033 28.5791 10.1111 28.5765 10.9903V39.565M15.3948 11.265C14.1028 11.5972 12.9033 12.2191 11.8872 13.0835C10.8711 13.9479 10.065 15.0322 9.53001 16.2543C8.99501 17.4764 8.74512 18.8041 8.79925 20.1371C8.85339 21.47 9.21014 22.7732 9.84248 23.9478M15.3948 11.265C15.4382 12.3283 15.7384 13.3653 16.2696 14.2874M9.84248 23.9478C8.73066 24.8511 7.85637 26.0123 7.29567 27.3305C6.73498 28.6487 6.50485 30.0839 6.62532 31.5113C6.74579 32.9387 7.2132 34.3151 7.98689 35.5207C8.76058 36.7262 9.81712 37.7245 11.0646 38.4286M9.84248 23.9478C10.2446 23.6203 10.6749 23.3313 11.1283 23.0796M11.0646 38.4286C10.9105 39.6205 11.0025 40.8313 11.3347 41.9862C11.6669 43.1412 12.2324 44.2158 12.9962 45.1436C13.76 46.0714 14.7059 46.8329 15.7755 47.3808C16.8451 47.9287 18.0157 48.2516 19.2149 48.3294C20.4142 48.4072 21.6167 48.2384 22.7481 47.8333C23.8796 47.4282 24.9159 46.7954 25.7933 45.974C26.6706 45.1527 27.3702 44.1602 27.8489 43.0579C28.3276 41.9556 28.5752 40.7668 28.5765 39.565M11.0646 38.4286C12.384 39.1729 13.8733 39.5657 15.3882 39.565M28.5765 39.565H41.7649C42.9308 39.565 44.049 40.0282 44.8734 40.8526C45.6978 41.6771 46.161 42.7952 46.161 43.9611V46.1592M21.9823 28.5747C23.8277 27.9256 25.4392 26.7438 26.6129 25.1788C27.7867 23.6138 28.47 21.7359 28.5765 19.7825M28.5765 28.5747H37.3688M28.5765 17.5845H46.161M37.3688 17.5845V10.9903C37.3688 9.82436 37.8319 8.70619 38.6563 7.88176C39.4808 7.05733 40.5989 6.59417 41.7649 6.59417M38.4678 28.5747C38.4678 29.1817 37.9757 29.6738 37.3688 29.6738C36.7618 29.6738 36.2697 29.1817 36.2697 28.5747C36.2697 27.9678 36.7618 27.4757 37.3688 27.4757C37.9757 27.4757 38.4678 27.9678 38.4678 28.5747ZM42.8639 6.59417C42.8639 7.20115 42.3718 7.6932 41.7649 7.6932C41.1579 7.6932 40.6658 7.20115 40.6658 6.59417C40.6658 5.98719 41.1579 5.49514 41.7649 5.49514C42.3718 5.49514 42.8639 5.98719 42.8639 6.59417ZM47.26 46.1592C47.26 46.7662 46.768 47.2582 46.161 47.2582C45.554 47.2582 45.062 46.7662 45.062 46.1592C45.062 45.5522 45.554 45.0602 46.161 45.0602C46.768 45.0602 47.26 45.5522 47.26 46.1592ZM47.26 17.5845C47.26 18.1914 46.768 18.6835 46.161 18.6835C45.554 18.6835 45.062 18.1914 45.062 17.5845C45.062 16.9775 45.554 16.4854 46.161 16.4854C46.768 16.4854 47.26 16.9775 47.26 17.5845Z" stroke="white" stroke-width="3" stroke-linecap="round" stroke-linejoin="round"/>
</g>
<defs>
<filter id="filter0_d_434_1239" x="-2.87257" y="-1.01449" width="62.8983" height="62.8983" filterUnits="userSpaceOnUse" color-interpolation-filters="sRGB">
<feFlood flood-opacity="0" result="BackgroundImageFix"/>
<feColorMatrix in="SourceAlpha" type="matrix" values="0 0 0 0 0 0 0 0 0 0 0 0 0 0 0 0 0 0 127 0" result="hardAlpha"/>
<feOffset dy="4"/>
<feGaussianBlur stdDeviation="2.5"/>
<feColorMatrix type="matrix" values="0 0 0 0 0 0 0 0 0 0 0 0 0 0 0 0 0 0 0.25 0"/>
<feBlend mode="normal" in2="BackgroundImageFix" result="effect1_dropShadow_434_1239"/>
<feBlend mode="normal" in="SourceGraphic" in2="effect1_dropShadow_434_1239" result="shape"/>
</filter>
</defs>
</svg>
