<svg width="52" height="56" viewBox="0 0 52 56" fill="none" xmlns="http://www.w3.org/2000/svg">
<g filter="url(#filter0_d_434_1237)">
<path d="M26 6.5H10.8333C9.68406 6.5 8.58186 6.95655 7.7692 7.7692C6.95655 8.58186 6.5 9.68406 6.5 10.8333V41.1667C6.5 42.3159 6.95655 43.4181 7.7692 44.2308C8.58186 45.0435 9.68406 45.5 10.8333 45.5H41.1667C42.3159 45.5 43.4181 45.0435 44.2308 44.2308C45.0435 43.4181 45.5 42.3159 45.5 41.1667V26M30.3333 32.5H19.5M19.5 32.5V21.6667M19.5 32.5L45.5 6.5M34.6667 6.5H45.5M45.5 6.5V17.3333" stroke="white" stroke-width="3" stroke-linecap="round" stroke-linejoin="round"/>
</g>
<defs>
<filter id="filter0_d_434_1237" x="-5" y="-1" width="62" height="62" filterUnits="userSpaceOnUse" color-interpolation-filters="sRGB">
<feFlood flood-opacity="0" result="BackgroundImageFix"/>
<feColorMatrix in="SourceAlpha" type="matrix" values="0 0 0 0 0 0 0 0 0 0 0 0 0 0 0 0 0 0 127 0" result="hardAlpha"/>
<feOffset dy="4"/>
<feGaussianBlur stdDeviation="2.5"/>
<feColorMatrix type="matrix" values="0 0 0 0 0 0 0 0 0 0 0 0 0 0 0 0 0 0 0.25 0"/>
<feBlend mode="normal" in2="BackgroundImageFix" result="effect1_dropShadow_434_1237"/>
<feBlend mode="normal" in="SourceGraphic" in2="effect1_dropShadow_434_1237" result="shape"/>
</filter>
</defs>
</svg>
